<?xml version="1.0" encoding="utf-8"?>
<!-- Generator: Adobe Illustrator 26.0.2, SVG Export Plug-In . SVG Version: 6.00 Build 0)  -->
<svg version="1.1" id="Layer_1" xmlns="http://www.w3.org/2000/svg" xmlns:xlink="http://www.w3.org/1999/xlink" x="0px" y="0px"
	 viewBox="0 0 1280 1060" style="enable-background:new 0 0 1280 1280;" xml:space="preserve">
<style type="text/css">
	.st0{fill:#1A1A1A;}
	.st1{fill:#1B1B1B;}
	.st2{fill:#181818;}
	.st3{fill:#353535;}
	.st4{fill:#0D0D0D;}
	.st5{fill:#070707;}
	.st6{fill:#020202;}
	.st7{fill:#00FFEF;}
	.st8{fill:#FDFDFD;}
	.st9{fill:#FEFEFE;}
	.st10{fill:#FAFAFA;}
</style>
<g>
	<path class="st2" d="M608.83,13.78c7.75,2.2,15.84,2.9,23.54,5.39c25.49,8.27,46.26,23.04,62.01,44.75
		c1.69,2.33,3.48,3.62,6.51,4.06c39.31,5.73,76.59,17.65,110.8,38.08c69.88,41.75,114.87,101.57,130.91,182.09
		c0.89,4.48,2.01,9.06,1.94,13.57c-0.14,8.49,3.49,14.78,8.53,21.39c22.65,29.72,28.73,63.5,21.79,99.69
		c-8.57,44.68-33.1,79.6-67.91,107.88c-10.43,8.47-21.59,15.89-33.52,22.08c-3.71,1.93-3.49,3.17-0.89,6.09
		c9.39,10.53,17.67,21.91,24.83,34.08c1.35,2.29,2.81,3.96,5.65,4.55c17.46,3.62,30.54,13.52,39.56,28.69
		c2.5,4.21,3.88,4.86,7.98,1.48c13.24-10.93,28.17-18.38,45.8-18.51c31.09-0.22,58.56,23.18,64.62,54.47
		c4.21,21.79,1.2,43.04-5.52,63.68c-15.83,48.62-41.17,91.74-77.09,128.32c-11.01,11.21-23.58,20.45-38.47,26.07
		c-23.96,9.03-46.03,1.8-59.5-19.91c-2.64-4.26-3.76-3.93-6.89-0.61c-26.69,28.38-59.75,46.44-96.29,58.71
		c-6.59,2.21-13.25,4.26-19.99,5.92c-3.34,0.82-5.18,2.48-6.63,5.48c-10.78,22.29-24.03,42.92-41.98,60.21
		c-15.05,14.5-32.07,25.91-53.14,29.1c-32.04,4.86-57.4-6.88-75.14-33.68c-4.71-7.13-9.14-9.38-17.56-9.14
		c-51.43,1.44-98.49-12.53-140.76-42.01c-15.27-10.66-28.59-23.44-39.1-38.92c-2.41-3.54-5.29-5.78-9.25-7.38
		c-38.23-15.44-71.74-37.61-97.8-69.98c-16.88-20.96-30.06-43.91-35.12-70.8c-2.03-10.79-2.12-21.58,0.59-32.29
		c6.73-26.59,29.52-39.35,55.09-29.46c9.2,3.56,16.65,5.64,25.41-0.31c4.25-2.89,10-3.05,15.29-3.23c2.42-0.09,3.31-0.6,2.34-3.33
		c-8.57-24.09-4.36-45.32,14.41-63.22c0.22-0.21,0.28-0.6,0.61-1.34c-8.01-3.67-15.48-8.24-22.09-14.16
		c-32.23-28.84-37.34-79.51-11.21-114.01c2.85-3.76,1.9-4.74-1.71-6.75c-30.15-16.8-46.79-43.06-51.74-76.71
		c-4.72-32.15,3-61.29,23.74-86.58c9.73-11.88,21.73-20.95,36.14-26.45c4-1.53,3.77-2.86,1.78-6.03
		c-46.48-74.48-0.03-173.49,86.91-185.27c20.03-2.71,39.6-0.46,58.48,6.8c3.15,1.21,4.18,0.88,5.1-2.57
		c13.2-49.34,51.73-82.81,102.28-89.07c0.82-0.1,1.71-0.03,2.22-0.91H608.83z"/>
	<path class="st7" d="M1015.28,374.83c-4.46-16.01-8.9-31.63-13.11-47.31c-0.93-3.47-2.66-5.51-6.02-6.78
		c-7.6-2.87-15.09-6.05-22.61-9.16c-1.18-0.49-3.01-0.68-3.03-2.28c-0.01-1.64,1.84-1.77,3.03-2.26c7.2-2.98,14.34-6.12,21.66-8.76
		c4.17-1.5,6.18-4.14,7.27-8.26c3.68-13.92,7.57-27.78,11.39-41.67c0.4-1.44,0.45-3.04,2.43-4.7c2,7.09,3.91,13.81,5.79,20.53
		c2.65,9.46,5.34,18.91,7.87,28.4c0.69,2.59,2.2,3.96,4.6,4.89c8.05,3.13,16.05,6.39,24.06,9.65c1.19,0.48,3.03,0.64,2.92,2.33
		c-0.09,1.29-1.73,1.42-2.81,1.85c-7.08,2.83-14.06,5.96-21.28,8.37c-5.17,1.72-7.47,5.04-8.77,10.04
		c-3.61,13.93-7.56,27.78-11.39,41.66C1017.01,372.47,1017.07,373.77,1015.28,374.83"/>
	<path class="st8" d="M670.91,998.23c-29.71,15.39-62.39,5.26-79.95-24.74c-6.49-11.08-10.77-23.01-13.95-35.39
		c-2.03-7.88-5.78-11.17-11.02-9.79c-5.35,1.41-7.04,5.98-4.9,13.87c1.42,5.24,2.93,10.46,4.68,15.59c0.92,2.69,0.98,3.93-2.47,3.99
		c-54.48,0.98-103.29-14.52-145.25-49.88c-7.81-6.58-15.19-13.85-20.33-22.63c-5.03-8.58-12.83-12.75-21.18-16.32
		c-27.39-11.73-52.63-26.78-73.71-48.04c-21.95-22.14-39.14-47.24-45.77-78.36c-2.07-9.73-2.23-19.54,1.1-29.13
		c5.03-14.49,16.23-20.26,30.91-15.85c3.06,0.92,5.95,2.43,8.93,3.66c1.8,0.74,2.49,2,2.3,4c-0.82,8.88,3.27,15.67,10.24,20.33
		c13.72,9.19,28.26,16.86,44.78,19.77c2.96,0.52,3.25,1.35,2.07,3.89c-3.43,7.38-6.31,14.99-8.64,22.8
		c-1.7,5.7,0.21,10.2,4.87,11.61c4.74,1.44,8.92-0.98,10.74-6.7c6.27-19.71,15.42-37.98,27.2-54.95c1.75-2.53,2.21-5.17,1.66-8.2
		c-4.9-27.25-4.63-54.7-2.9-82.18c1.71-27.08-2.6-53.23-10.12-79.25c-5.99-20.75-15.8-39.87-22.97-60.1
		c-13.15-37.14-18.13-75.24-16.63-114.49c1.54-40.21,9.08-79.02,24.71-116.17c20.8-49.47,52.83-90.2,95.81-122.24
		c42.71-31.84,90.64-51.5,143.33-58.81c70.62-9.81,138.24-0.29,200.14,36.56c66.77,39.74,108.97,97.54,122.61,174.89
		c1.2,6.83,1.65,13.8,2.24,20.72c0.24,2.86,1.18,5.22,3.07,7.32c31.9,35.34,35.15,75.68,19.78,118.69
		c-14.25,39.89-41.75,68.9-77.61,90.39c-29.67,17.78-61.89,28.29-96.19,32.47c-0.67,0.08-1.35,0.16-2.02,0.28
		c-5.66,0.97-8.84,4.39-8.38,9.01c0.47,4.83,4.67,7.86,10.35,7.28c11.66-1.2,23.18-3.2,34.56-6.05
		c12.52-3.14,24.86-6.88,36.71-12.03c2.83-1.23,4.51-0.78,6.57,1.42c40.86,43.44,61.42,94.6,57.7,154.5
		c-2.35,37.92-12,73.89-33.07,106.11c-22.14,33.88-53.39,56.3-90.32,71.51c-9.37,3.86-18.91,7.2-28.8,9.97
		c-0.5-2.45,0.78-4.18,1.43-6.02c12.96-36.56,21.06-74.03,20.84-113.01c-0.1-16.21-2.26-32.15-7.47-47.56
		c-12.95-38.35-45.64-59.92-87.26-57.64c-28.45,1.56-52.22,13.56-72.37,33.14c-3.44,3.34-5.58,3.51-9.7,1.15
		c-21.53-12.3-44.12-14.59-67.53-5.79c-2.67,1-5.21,2.49-7.58,4.09c-4.28,2.9-5.33,7.62-2.83,11.47c2.43,3.76,6.83,4.86,11.19,2.45
		c18.61-10.32,37.16-8.28,55.64,0.23c5.82,2.68,5.73,2.83,1.85,8.17c-7.7,10.61-14.01,22.03-19.46,33.93
		c-2.53,5.52-1.26,10.11,3.16,12.22c4.63,2.22,9.09,0.29,11.76-5.46c9.92-21.3,22.49-40.67,40.69-55.91
		c18.34-15.35,39.16-24.15,63.47-23.15c33.99,1.39,56.59,19.6,65.18,52.49c5.12,19.61,5.8,39.52,3.85,59.6
		c-4.04,0.06-3.42-3.16-3.4-5.4c0.05-5.84-1.02-11.41-2.61-17c-5.01-17.63-21.01-23.11-34.78-21.4
		c-16.74,2.09-28.77,12.31-39.13,24.51c-18.61,21.91-29.63,47.53-35.95,75.43c-5.27,23.24-8.3,46.7-7.79,70.52
		c0.26,12.23,2.11,24.31,6.93,35.73c3.61,8.57,8.89,15.56,17.9,19.1C669.88,994.27,672.09,995.22,670.91,998.23"/>
	<path class="st7" d="M670.91,998.23c-0.63-0.54-1.18-1.36-1.92-1.6c-14.11-4.43-20.35-15.7-24.13-28.62
		c-4.91-16.78-5.18-34-3.88-51.37c1.58-21.19,4.53-42.15,10.63-62.48c7.78-25.92,19.51-49.87,38.89-69.32
		c9.44-9.47,20.04-17.25,33.88-19.16c15.88-2.2,33.9,4.18,39.13,24.3c1.33,5.12,2.43,10.19,2.22,15.51
		c-0.09,2.18-0.2,4.43,0.92,6.46c-1.05,17.13-4.38,33.88-8.6,50.45c-8.11,31.87-19.89,62.21-38.27,89.71
		c-12.19,18.22-26.66,34.14-46.1,44.93C672.81,997.55,671.84,997.85,670.91,998.23"/>
	<path class="st9" d="M935.54,865.67c-24.15,10.47-38.36-4.29-45.51-20.13c-1.01-2.24-0.26-3.78,0.96-5.55
		c29.04-42.39,40.7-89.68,39.39-140.56c-0.25-9.66-1.49-19.27-3.36-28.77c-0.47-2.37-1.11-4.39,2.86-3.4
		c4.21,1.04,6.89-1.73,9.33-4.8c9.14-11.49,19.45-21.64,32.19-29.27c35.12-21.03,73.65,6.05,74.34,42.13
		c1.1,6.32,0.23,11.54-4.91,16.54c-8.48,8.25-13.01,19.35-18.4,29.71c-9.32,17.89-17.32,36.43-27.06,54.12
		c-11.54,20.95-23.56,41.58-38,60.7C950.01,846.1,943.45,856.38,935.54,865.67"/>
	<path class="st7" d="M464.24,120.71c-56.81,38.69-97.08,89.91-120.53,154.28c-23.03-22.16-20.64-82.75,4.33-117.07
		C378.94,115.47,431.32,107.83,464.24,120.71"/>
	<path class="st7" d="M498.53,100.76c5.8-25.37,33.31-58.98,75.36-68.21c40.16-8.82,80.67,8.59,99.72,32.56
		C612.15,62.01,554.03,73.08,498.53,100.76"/>
	<path class="st7" d="M282.7,387.27c1.61-33.57,14.07-61.02,44.48-78.31c0.59-0.34,1.18-0.67,1.8-0.95c1.37-0.6,2.93-1.97,4.23-1.05
		c1.43,1.02,0.29,2.81-0.03,4.25c-9.85,43.26-11.8,86.92-6.34,130.91c0.9,7.22,2.63,14.33,3.87,21.51c0.21,1.2,1.32,2.79-0.22,3.67
		c-1.08,0.62-2.23-0.48-3.24-1.04c-21.66-11.84-34.65-30.37-41.2-53.76C283.75,404.3,282.67,395.89,282.7,387.27"/>
	<path class="st7" d="M935.54,865.67c0.41-4.64,3.05-8.25,5.75-11.7c26.01-33.22,47.72-69.1,65.95-107.09
		c6.67-13.9,13.28-27.83,20.79-41.3c4.04-7.25,8.25-14.43,15.27-19.38c4.03-2.84,1.25-7.33,2.42-10.88
		c2.04,9.71,0.14,19.27-1.68,28.68c-6.75,34.84-22.48,65.9-41.51,95.42c-13.55,21.03-28.79,40.69-48.96,55.97
		C948.03,859.59,942.16,863.3,935.54,865.67"/>
	<path class="st7" d="M320.85,536.63c0.21-12.68,3.83-25.7,11.8-37.39c3.01-4.41,3.42-4.4,5.68,0.21
		c13.8,28.17,26.61,56.72,32.71,87.75c0.75,3.82,1.25,7.68,1.74,11.54c0.67,5.21,0.29,5.51-4.93,4.01
		c-12.76-3.67-23.29-10.76-31.62-21.06C326.16,569.22,320.89,554.08,320.85,536.63"/>
	<path class="st7" d="M372.88,656.43c-0.13,10.32-0.51,20.63,0.43,30.94c0.13,1.39,0.89,3.3-0.74,4.17
		c-1.47,0.79-2.89-0.5-4.18-1.22c-16.51-9.15-22-35.49-11.03-52.52c3.27-5.09,7.31-9.25,12.78-11.99c3.2-1.6,4.12-0.73,4.06,2.73
		c-0.16,9.29-0.05,18.59-0.05,27.89C373.73,656.43,373.31,656.43,372.88,656.43"/>
	<path class="st7" d="M338.08,699.81c13.71-0.26,23.93,8.2,26.08,20.93c1.67,9.86-3.42,14.43-12.78,10.99
		c-10.47-3.85-20.77-8.21-30.03-14.55c-6.39-4.38-6.12-8.62,0.6-12.72C327.1,701.31,332.77,699.78,338.08,699.81"/>
	<path class="st10" d="M923.66,654.87c-3.47-12.71-7.67-24.6-13.06-37.06c7.35,2.9,11.48,7.94,15.44,13.1
		C934.88,642.43,934.73,643.88,923.66,654.87"/>
	<path class="st2" d="M618.03,674.16c-9.77-0.11-19.24-2-28.35-5.4c-3.4-1.27-5.95-0.9-8.93,1.07c-8.42,5.54-17.59,9.51-27.47,11.67
		c-6.01,1.31-10.55-1.08-11.57-6c-0.98-4.73,1.91-8.57,7.82-9.96c9.72-2.28,18.71-6.26,26.6-12.28c4.81-3.67,9.24-3.88,14.63-1.63
		c10.11,4.2,20.64,6.66,31.73,5.85c20.47-1.5,35.11-19.07,32.85-39.44c-1.06-9.55,1.41-12.38,10.92-12.56
		c7.84-0.15,15.61-0.79,22.94-3.86c4.47-1.87,8.03-4.55,7.49-10.19c-0.51-5.34-4.63-6.64-8.79-7.82c-4.94-1.4-10.04-1.52-15.13-1.65
		c-12.72-0.33-25.43-0.56-38.15-0.95c-8.09-0.25-11.02-3.9-9.59-11.77c0.88-4.87,1.41-9.75,0.48-14.66
		c-0.64-3.34-2.16-6.06-5.7-7.15c-3.63-1.11-6.23,0.58-8.54,3.08c-4.6,4.97-7.3,11.01-9.3,17.34c-1.26,3.98-3.29,6.74-7.34,8.38
		c-6.52,2.66-10.35,8.2-12.82,14.46c-1.92,4.86-5.27,7.2-10.13,8.11c-13.48,2.51-27.01,1.98-40.56,0.71
		c-1.71-0.16-3.28-0.84-4.67-1.88c-7.21-5.4-14.13-11.13-19.62-18.36c-3.64-4.8-3.44-9.53,0.4-12.61c3.83-3.06,8.82-2.37,12.34,2.42
		c8.13,11.06,18.34,17.22,32.51,15.03c1-0.15,2.04-0.11,3.05-0.04c7.42,0.53,13.49-0.93,16.63-8.92c1.46-3.71,4.6-6.92,8.1-8.95
		c5.31-3.08,8.13-7.63,10.4-13.08c2.83-6.79,6.98-12.82,12.93-17.36c13.22-10.08,31.4-4.72,37.1,10.93
		c1.53,4.19,2.44,8.58,2.07,12.98c-0.38,4.48,1.53,5.35,5.51,5.36c10.17,0.02,20.35,0.32,30.52,0.73
		c7.67,0.31,15.21,1.43,22.09,5.21c15.68,8.62,17.39,29.97,3.25,40.97c-7.78,6.06-16.98,8.35-26.55,9.21
		c-3.64,0.33-5.09,1.36-5.5,5.36C668.75,655.3,646.99,674.47,618.03,674.16"/>
	<path class="st2" d="M737.83,486.9c-29.34,0.49-53.85-1.94-77.64-9.81c-11.83-3.91-22.93-9.28-33.05-16.58
		c-5.19-3.74-6.42-8.37-3.48-12.55c2.94-4.18,7.73-4.55,12.97-0.85c20.19,14.22,43.23,20.28,67.29,22.21
		c54.41,4.36,106.39-5.36,155.53-29.25c16.57-8.06,31.72-18.32,43.78-32.55c6.43-7.59,11.38-16,13.53-25.86
		c0.14-0.66,0.37-1.31,0.59-1.94c1.7-4.82,5.79-7.1,10.33-5.75c4.22,1.25,6.41,5.21,5.39,10.08c-3.99,18.95-15.06,33.49-29.17,45.97
		c-19.86,17.58-43.19,29.08-67.96,37.93C802.78,479.79,768.57,485.95,737.83,486.9"/>
	<path class="st2" d="M647.61,376.36c-0.06-19.44,14.81-34.99,33.48-35.02c18.97-0.04,34.37,15.74,34.53,35.4
		c0.17,19.6-14.85,35.31-33.76,35.31C663.06,412.06,647.67,396.02,647.61,376.36"/>
	<path class="st2" d="M898.71,339.25c-0.14,8.02-2.09,14.9-6.57,21c-8.09,11.02-21.73,13.09-32.68,4.91
		c-14.82-11.08-18.57-34.71-7.9-49.83c8.95-12.68,24.98-14.1,36.04-3.09C895.2,319.82,898.55,329.18,898.71,339.25"/>
</g>
</svg>
